# xmcd
#
# Track frame offsets: 
#        165
#        20987
#        63502
#        81050
#        98110
#        117970
#        136450
#        157497
#        185187
#        211537
#
# Disc length: 3058 seconds
#
# Revision: 7
# Processed by: cddbd v1.5.1PL0 Copyright (c) Steve Scherf et al.
# Submitted via: ExactAudioCopy v0.95a5
#
DISCID=920bf00a
DTITLE=Various Artist - Nasty Blues
DYEAR=1989
DGENRE=Blues
TTITLE0=Clarence Carter - Strokin'
TTITLE1=Trudy Lynn - Trudy Sings the Blues
TTITLE2=Chick Willis - I Want To Play With Your Poodle
TTITLE3=Artie White - Rainy Day
TTITLE4=Gary B. B. Coleman - One Eyed Woman
TTITLE5=Chick Willis - I Want a Big Fat Woman
TTITLE6=Little Johnny Taylor - Ugly Man
TTITLE7=Gary B. B. Coleman - Watch Where You Stroke
TTITLE8=Travis Haddix - Two Heads Are Better Than One
TTITLE9=Clarence Carter - Why Do I Stay Here and Take This Shit From Y
TTITLE9=ou
EXTD=LABLE =Ichiban Records, Inc.\nID =ICH-1048-CD\nUPC =019011-104
EXTD=8-29\nCOPYRIGHT =1989
EXTT0=
EXTT1=
EXTT2=
EXTT3=
EXTT4=
EXTT5=
EXTT6=
EXTT7=
EXTT8=
EXTT9=
PLAYORDER=
